<mxfile host="app.diagrams.net" modified="2021-05-21T14:39:46.384Z" agent="5.0 (Windows)" etag="TCy-qAlymaBzXv4ZpElf" version="14.6.3" type="github">
  <diagram id="o2fH_WWDMF9li2Jf_rtt" name="Page-1">
    <mxGraphModel dx="868" dy="489" grid="1" gridSize="10" guides="1" tooltips="1" connect="1" arrows="1" fold="1" page="1" pageScale="1" pageWidth="850" pageHeight="1100" math="0" shadow="0">
      <root>
        <mxCell id="0" />
        <mxCell id="1" parent="0" />
        <mxCell id="26X6T3ZS9L2JQqSbIRwc-3" style="edgeStyle=orthogonalEdgeStyle;rounded=0;orthogonalLoop=1;jettySize=auto;html=1;exitX=0.5;exitY=1;exitDx=0;exitDy=0;startArrow=none;startFill=0;" parent="1" source="26X6T3ZS9L2JQqSbIRwc-1" edge="1">
          <mxGeometry relative="1" as="geometry">
            <mxPoint x="180" y="160" as="targetPoint" />
          </mxGeometry>
        </mxCell>
        <mxCell id="26X6T3ZS9L2JQqSbIRwc-1" value="Start" style="ellipse;whiteSpace=wrap;html=1;" parent="1" vertex="1">
          <mxGeometry x="120" y="40" width="120" height="80" as="geometry" />
        </mxCell>
        <mxCell id="26X6T3ZS9L2JQqSbIRwc-6" value="" style="edgeStyle=orthogonalEdgeStyle;rounded=0;orthogonalLoop=1;jettySize=auto;html=1;startArrow=none;startFill=0;" parent="1" edge="1">
          <mxGeometry relative="1" as="geometry">
            <mxPoint x="180" y="220" as="sourcePoint" />
            <mxPoint x="180" y="260" as="targetPoint" />
          </mxGeometry>
        </mxCell>
        <mxCell id="26X6T3ZS9L2JQqSbIRwc-8" value="" style="edgeStyle=orthogonalEdgeStyle;rounded=0;orthogonalLoop=1;jettySize=auto;html=1;startArrow=none;startFill=0;" parent="1" target="26X6T3ZS9L2JQqSbIRwc-7" edge="1">
          <mxGeometry relative="1" as="geometry">
            <mxPoint x="180" y="580" as="sourcePoint" />
          </mxGeometry>
        </mxCell>
        <mxCell id="26X6T3ZS9L2JQqSbIRwc-10" value="" style="edgeStyle=orthogonalEdgeStyle;rounded=0;orthogonalLoop=1;jettySize=auto;html=1;startArrow=none;startFill=0;" parent="1" source="26X6T3ZS9L2JQqSbIRwc-7" target="26X6T3ZS9L2JQqSbIRwc-9" edge="1">
          <mxGeometry relative="1" as="geometry" />
        </mxCell>
        <mxCell id="26X6T3ZS9L2JQqSbIRwc-7" value="Convert to Grayscale" style="whiteSpace=wrap;html=1;rounded=0;" parent="1" vertex="1">
          <mxGeometry x="120" y="620" width="120" height="60" as="geometry" />
        </mxCell>
        <mxCell id="26X6T3ZS9L2JQqSbIRwc-13" style="edgeStyle=orthogonalEdgeStyle;rounded=0;orthogonalLoop=1;jettySize=auto;html=1;exitX=0.5;exitY=1;exitDx=0;exitDy=0;entryX=0.5;entryY=0;entryDx=0;entryDy=0;startArrow=none;startFill=0;" parent="1" source="26X6T3ZS9L2JQqSbIRwc-9" target="26X6T3ZS9L2JQqSbIRwc-11" edge="1">
          <mxGeometry relative="1" as="geometry" />
        </mxCell>
        <mxCell id="26X6T3ZS9L2JQqSbIRwc-9" value="Face Detection" style="whiteSpace=wrap;html=1;rounded=0;" parent="1" vertex="1">
          <mxGeometry x="120" y="720" width="120" height="60" as="geometry" />
        </mxCell>
        <mxCell id="BRGnzEm3bvZSI96jECQM-8" style="edgeStyle=orthogonalEdgeStyle;rounded=0;orthogonalLoop=1;jettySize=auto;html=1;exitX=1;exitY=0.5;exitDx=0;exitDy=0;entryX=0.5;entryY=1;entryDx=0;entryDy=0;" parent="1" source="26X6T3ZS9L2JQqSbIRwc-11" target="BRGnzEm3bvZSI96jECQM-7" edge="1">
          <mxGeometry relative="1" as="geometry" />
        </mxCell>
        <mxCell id="BRGnzEm3bvZSI96jECQM-23" style="edgeStyle=orthogonalEdgeStyle;rounded=0;orthogonalLoop=1;jettySize=auto;html=1;exitX=0.5;exitY=1;exitDx=0;exitDy=0;entryX=0.5;entryY=0;entryDx=0;entryDy=0;" parent="1" source="26X6T3ZS9L2JQqSbIRwc-11" target="26X6T3ZS9L2JQqSbIRwc-21" edge="1">
          <mxGeometry relative="1" as="geometry" />
        </mxCell>
        <mxCell id="26X6T3ZS9L2JQqSbIRwc-11" value="There is face?" style="rhombus;whiteSpace=wrap;html=1;" parent="1" vertex="1">
          <mxGeometry x="120" y="820" width="120" height="120" as="geometry" />
        </mxCell>
        <mxCell id="26X6T3ZS9L2JQqSbIRwc-14" value="No" style="text;html=1;align=center;verticalAlign=middle;resizable=0;points=[];autosize=1;strokeColor=none;" parent="1" vertex="1">
          <mxGeometry x="265" y="850" width="30" height="20" as="geometry" />
        </mxCell>
        <mxCell id="BRGnzEm3bvZSI96jECQM-25" style="edgeStyle=orthogonalEdgeStyle;rounded=0;orthogonalLoop=1;jettySize=auto;html=1;exitX=0.5;exitY=1;exitDx=0;exitDy=0;entryX=0.5;entryY=0;entryDx=0;entryDy=0;" parent="1" source="26X6T3ZS9L2JQqSbIRwc-15" target="26X6T3ZS9L2JQqSbIRwc-17" edge="1">
          <mxGeometry relative="1" as="geometry" />
        </mxCell>
        <mxCell id="26X6T3ZS9L2JQqSbIRwc-15" value="Detect Face Landmark" style="whiteSpace=wrap;html=1;" parent="1" vertex="1">
          <mxGeometry x="880" y="135" width="120" height="60" as="geometry" />
        </mxCell>
        <mxCell id="26X6T3ZS9L2JQqSbIRwc-20" value="" style="edgeStyle=orthogonalEdgeStyle;rounded=0;orthogonalLoop=1;jettySize=auto;html=1;startArrow=none;startFill=0;" parent="1" source="26X6T3ZS9L2JQqSbIRwc-17" target="26X6T3ZS9L2JQqSbIRwc-19" edge="1">
          <mxGeometry relative="1" as="geometry" />
        </mxCell>
        <mxCell id="26X6T3ZS9L2JQqSbIRwc-17" value="Select left eye and right eye landmark " style="whiteSpace=wrap;html=1;" parent="1" vertex="1">
          <mxGeometry x="880" y="235" width="120" height="60" as="geometry" />
        </mxCell>
        <mxCell id="FTUkXmhy8Rm89qPhLMOY-2" style="edgeStyle=orthogonalEdgeStyle;rounded=0;orthogonalLoop=1;jettySize=auto;html=1;exitX=0.5;exitY=1;exitDx=0;exitDy=0;entryX=0.5;entryY=0;entryDx=0;entryDy=0;" edge="1" parent="1" source="26X6T3ZS9L2JQqSbIRwc-19" target="26X6T3ZS9L2JQqSbIRwc-53">
          <mxGeometry relative="1" as="geometry" />
        </mxCell>
        <mxCell id="26X6T3ZS9L2JQqSbIRwc-19" value="Select mouth landmark" style="whiteSpace=wrap;html=1;" parent="1" vertex="1">
          <mxGeometry x="880" y="335" width="120" height="60" as="geometry" />
        </mxCell>
        <mxCell id="26X6T3ZS9L2JQqSbIRwc-21" value="A" style="ellipse;whiteSpace=wrap;html=1;" parent="1" vertex="1">
          <mxGeometry x="150" y="980" width="60" height="60" as="geometry" />
        </mxCell>
        <mxCell id="BRGnzEm3bvZSI96jECQM-24" style="edgeStyle=orthogonalEdgeStyle;rounded=0;orthogonalLoop=1;jettySize=auto;html=1;exitX=0.5;exitY=1;exitDx=0;exitDy=0;entryX=0.5;entryY=0;entryDx=0;entryDy=0;" parent="1" source="26X6T3ZS9L2JQqSbIRwc-23" target="26X6T3ZS9L2JQqSbIRwc-15" edge="1">
          <mxGeometry relative="1" as="geometry" />
        </mxCell>
        <mxCell id="26X6T3ZS9L2JQqSbIRwc-23" value="A" style="ellipse;whiteSpace=wrap;html=1;" parent="1" vertex="1">
          <mxGeometry x="910" y="35" width="60" height="60" as="geometry" />
        </mxCell>
        <mxCell id="26X6T3ZS9L2JQqSbIRwc-27" style="edgeStyle=orthogonalEdgeStyle;rounded=0;orthogonalLoop=1;jettySize=auto;html=1;exitX=0.5;exitY=0;exitDx=0;exitDy=0;startArrow=none;startFill=0;" parent="1" source="26X6T3ZS9L2JQqSbIRwc-24" edge="1">
          <mxGeometry relative="1" as="geometry">
            <mxPoint x="180" y="240" as="targetPoint" />
            <Array as="points">
              <mxPoint x="340" y="240" />
            </Array>
          </mxGeometry>
        </mxCell>
        <mxCell id="26X6T3ZS9L2JQqSbIRwc-30" style="edgeStyle=orthogonalEdgeStyle;rounded=0;orthogonalLoop=1;jettySize=auto;html=1;exitX=1;exitY=0.5;exitDx=0;exitDy=0;entryX=0;entryY=0.5;entryDx=0;entryDy=0;startArrow=none;startFill=0;" parent="1" source="26X6T3ZS9L2JQqSbIRwc-24" target="26X6T3ZS9L2JQqSbIRwc-50" edge="1">
          <mxGeometry relative="1" as="geometry">
            <mxPoint x="440" y="390" as="targetPoint" />
          </mxGeometry>
        </mxCell>
        <mxCell id="26X6T3ZS9L2JQqSbIRwc-24" value="&lt;div&gt;Is already 1&lt;/div&gt;&lt;div&gt;minnutes&lt;br&gt;&lt;/div&gt;" style="rhombus;whiteSpace=wrap;html=1;" parent="1" vertex="1">
          <mxGeometry x="280" y="330" width="120" height="120" as="geometry" />
        </mxCell>
        <mxCell id="26X6T3ZS9L2JQqSbIRwc-28" value="No" style="text;html=1;align=center;verticalAlign=middle;resizable=0;points=[];autosize=1;strokeColor=none;" parent="1" vertex="1">
          <mxGeometry x="305" y="310" width="30" height="20" as="geometry" />
        </mxCell>
        <mxCell id="26X6T3ZS9L2JQqSbIRwc-35" value="" style="edgeStyle=orthogonalEdgeStyle;rounded=0;orthogonalLoop=1;jettySize=auto;html=1;startArrow=none;startFill=0;" parent="1" edge="1">
          <mxGeometry relative="1" as="geometry">
            <mxPoint x="610" y="420" as="sourcePoint" />
            <mxPoint x="610" y="460" as="targetPoint" />
          </mxGeometry>
        </mxCell>
        <mxCell id="26X6T3ZS9L2JQqSbIRwc-31" value="Yes" style="text;html=1;align=center;verticalAlign=middle;resizable=0;points=[];autosize=1;strokeColor=none;" parent="1" vertex="1">
          <mxGeometry x="397" y="365" width="40" height="20" as="geometry" />
        </mxCell>
        <mxCell id="26X6T3ZS9L2JQqSbIRwc-33" value="Yes" style="text;html=1;align=center;verticalAlign=middle;resizable=0;points=[];autosize=1;strokeColor=none;" parent="1" vertex="1">
          <mxGeometry x="175" y="955" width="40" height="20" as="geometry" />
        </mxCell>
        <mxCell id="26X6T3ZS9L2JQqSbIRwc-39" value="" style="edgeStyle=orthogonalEdgeStyle;rounded=0;orthogonalLoop=1;jettySize=auto;html=1;startArrow=none;startFill=0;" parent="1" target="26X6T3ZS9L2JQqSbIRwc-38" edge="1">
          <mxGeometry relative="1" as="geometry">
            <mxPoint x="610" y="520" as="sourcePoint" />
          </mxGeometry>
        </mxCell>
        <mxCell id="26X6T3ZS9L2JQqSbIRwc-41" style="edgeStyle=orthogonalEdgeStyle;rounded=0;orthogonalLoop=1;jettySize=auto;html=1;exitX=0.5;exitY=1;exitDx=0;exitDy=0;entryX=0.5;entryY=0;entryDx=0;entryDy=0;startArrow=none;startFill=0;" parent="1" source="26X6T3ZS9L2JQqSbIRwc-38" edge="1">
          <mxGeometry relative="1" as="geometry">
            <mxPoint x="610" y="720" as="targetPoint" />
          </mxGeometry>
        </mxCell>
        <mxCell id="26X6T3ZS9L2JQqSbIRwc-43" style="edgeStyle=orthogonalEdgeStyle;rounded=0;orthogonalLoop=1;jettySize=auto;html=1;exitX=1;exitY=0.5;exitDx=0;exitDy=0;startArrow=none;startFill=0;" parent="1" source="26X6T3ZS9L2JQqSbIRwc-38" edge="1">
          <mxGeometry relative="1" as="geometry">
            <mxPoint x="340" y="238" as="targetPoint" />
            <Array as="points">
              <mxPoint x="710" y="620" />
              <mxPoint x="710" y="240" />
              <mxPoint x="340" y="240" />
            </Array>
          </mxGeometry>
        </mxCell>
        <mxCell id="26X6T3ZS9L2JQqSbIRwc-38" value="Already hit threshold?" style="rhombus;whiteSpace=wrap;html=1;rounded=0;" parent="1" vertex="1">
          <mxGeometry x="550" y="560" width="120" height="120" as="geometry" />
        </mxCell>
        <mxCell id="26X6T3ZS9L2JQqSbIRwc-45" style="edgeStyle=orthogonalEdgeStyle;rounded=0;orthogonalLoop=1;jettySize=auto;html=1;exitX=1;exitY=0.5;exitDx=0;exitDy=0;entryX=0.975;entryY=1;entryDx=0;entryDy=0;entryPerimeter=0;startArrow=none;startFill=0;" parent="1" source="26X6T3ZS9L2JQqSbIRwc-52" target="26X6T3ZS9L2JQqSbIRwc-44" edge="1">
          <mxGeometry relative="1" as="geometry">
            <mxPoint x="670" y="750" as="sourcePoint" />
            <Array as="points">
              <mxPoint x="709" y="750" />
            </Array>
          </mxGeometry>
        </mxCell>
        <mxCell id="26X6T3ZS9L2JQqSbIRwc-47" style="edgeStyle=orthogonalEdgeStyle;rounded=0;orthogonalLoop=1;jettySize=auto;html=1;exitX=0.5;exitY=1;exitDx=0;exitDy=0;entryX=0.5;entryY=0;entryDx=0;entryDy=0;startArrow=none;startFill=0;" parent="1" target="26X6T3ZS9L2JQqSbIRwc-46" edge="1">
          <mxGeometry relative="1" as="geometry">
            <mxPoint x="610" y="780" as="sourcePoint" />
          </mxGeometry>
        </mxCell>
        <mxCell id="26X6T3ZS9L2JQqSbIRwc-42" value="Yes" style="text;html=1;align=center;verticalAlign=middle;resizable=0;points=[];autosize=1;strokeColor=none;" parent="1" vertex="1">
          <mxGeometry x="605" y="690" width="40" height="20" as="geometry" />
        </mxCell>
        <mxCell id="26X6T3ZS9L2JQqSbIRwc-44" value="No" style="text;html=1;align=center;verticalAlign=middle;resizable=0;points=[];autosize=1;strokeColor=none;" parent="1" vertex="1">
          <mxGeometry x="675" y="600" width="30" height="20" as="geometry" />
        </mxCell>
        <mxCell id="26X6T3ZS9L2JQqSbIRwc-46" value="End" style="ellipse;whiteSpace=wrap;html=1;" parent="1" vertex="1">
          <mxGeometry x="550" y="820" width="120" height="80" as="geometry" />
        </mxCell>
        <mxCell id="26X6T3ZS9L2JQqSbIRwc-48" value="&lt;div&gt;Capture driver&lt;/div&gt;&lt;div&gt;face picture&lt;br&gt;&lt;/div&gt;" style="shape=parallelogram;perimeter=parallelogramPerimeter;whiteSpace=wrap;html=1;fixedSize=1;" parent="1" vertex="1">
          <mxGeometry x="120" y="520" width="120" height="60" as="geometry" />
        </mxCell>
        <mxCell id="26X6T3ZS9L2JQqSbIRwc-49" value="&lt;div&gt;Camera and GPS &lt;br&gt;&lt;/div&gt;&lt;div&gt;Initialization&lt;br&gt;&lt;/div&gt;" style="shape=hexagon;perimeter=hexagonPerimeter2;whiteSpace=wrap;html=1;fixedSize=1;" parent="1" vertex="1">
          <mxGeometry x="120" y="160" width="120" height="60" as="geometry" />
        </mxCell>
        <mxCell id="26X6T3ZS9L2JQqSbIRwc-50" value="Get GPS Data" style="shape=parallelogram;perimeter=parallelogramPerimeter;whiteSpace=wrap;html=1;fixedSize=1;" parent="1" vertex="1">
          <mxGeometry x="550" y="360" width="120" height="60" as="geometry" />
        </mxCell>
        <mxCell id="26X6T3ZS9L2JQqSbIRwc-51" value="&lt;div&gt;Send GPS data &lt;br&gt;&lt;/div&gt;&lt;div&gt;to Server&lt;br&gt;&lt;/div&gt;" style="shape=parallelogram;perimeter=parallelogramPerimeter;whiteSpace=wrap;html=1;fixedSize=1;" parent="1" vertex="1">
          <mxGeometry x="550" y="460" width="120" height="60" as="geometry" />
        </mxCell>
        <mxCell id="26X6T3ZS9L2JQqSbIRwc-52" value="&lt;div&gt;Send Notification &lt;br&gt;&lt;/div&gt;&lt;div&gt;to alert device&lt;/div&gt;" style="shape=parallelogram;perimeter=parallelogramPerimeter;whiteSpace=wrap;html=1;fixedSize=1;" parent="1" vertex="1">
          <mxGeometry x="550" y="720" width="120" height="60" as="geometry" />
        </mxCell>
        <mxCell id="26X6T3ZS9L2JQqSbIRwc-56" style="edgeStyle=orthogonalEdgeStyle;rounded=0;orthogonalLoop=1;jettySize=auto;html=1;exitX=0.5;exitY=1;exitDx=0;exitDy=0;entryX=0.5;entryY=0;entryDx=0;entryDy=0;startArrow=none;startFill=0;" parent="1" source="26X6T3ZS9L2JQqSbIRwc-53" target="26X6T3ZS9L2JQqSbIRwc-55" edge="1">
          <mxGeometry relative="1" as="geometry" />
        </mxCell>
        <mxCell id="26X6T3ZS9L2JQqSbIRwc-53" value="Detect blink eyes and yawn" style="rounded=0;whiteSpace=wrap;html=1;" parent="1" vertex="1">
          <mxGeometry x="880" y="430" width="120" height="60" as="geometry" />
        </mxCell>
        <mxCell id="26X6T3ZS9L2JQqSbIRwc-59" style="edgeStyle=orthogonalEdgeStyle;rounded=0;orthogonalLoop=1;jettySize=auto;html=1;exitX=1;exitY=0.5;exitDx=0;exitDy=0;entryX=0;entryY=0.5;entryDx=0;entryDy=0;startArrow=none;startFill=0;" parent="1" source="26X6T3ZS9L2JQqSbIRwc-55" target="26X6T3ZS9L2JQqSbIRwc-57" edge="1">
          <mxGeometry relative="1" as="geometry" />
        </mxCell>
        <mxCell id="26X6T3ZS9L2JQqSbIRwc-80" style="edgeStyle=orthogonalEdgeStyle;rounded=0;orthogonalLoop=1;jettySize=auto;html=1;exitX=0.5;exitY=1;exitDx=0;exitDy=0;entryX=0.5;entryY=0;entryDx=0;entryDy=0;startArrow=none;startFill=0;" parent="1" source="26X6T3ZS9L2JQqSbIRwc-55" target="26X6T3ZS9L2JQqSbIRwc-79" edge="1">
          <mxGeometry relative="1" as="geometry" />
        </mxCell>
        <mxCell id="26X6T3ZS9L2JQqSbIRwc-55" value="is there any blink or yawn?" style="rhombus;whiteSpace=wrap;html=1;" parent="1" vertex="1">
          <mxGeometry x="880" y="530" width="120" height="120" as="geometry" />
        </mxCell>
        <mxCell id="26X6T3ZS9L2JQqSbIRwc-60" style="edgeStyle=orthogonalEdgeStyle;rounded=0;orthogonalLoop=1;jettySize=auto;html=1;exitX=0.5;exitY=1;exitDx=0;exitDy=0;entryX=0.5;entryY=0;entryDx=0;entryDy=0;startArrow=none;startFill=0;" parent="1" source="26X6T3ZS9L2JQqSbIRwc-57" target="26X6T3ZS9L2JQqSbIRwc-58" edge="1">
          <mxGeometry relative="1" as="geometry" />
        </mxCell>
        <mxCell id="26X6T3ZS9L2JQqSbIRwc-57" value="Compare to previous data" style="rounded=0;whiteSpace=wrap;html=1;" parent="1" vertex="1">
          <mxGeometry x="1040" y="560" width="120" height="60" as="geometry" />
        </mxCell>
        <mxCell id="26X6T3ZS9L2JQqSbIRwc-71" style="edgeStyle=orthogonalEdgeStyle;rounded=0;orthogonalLoop=1;jettySize=auto;html=1;exitX=0.5;exitY=1;exitDx=0;exitDy=0;entryX=0.5;entryY=0;entryDx=0;entryDy=0;startArrow=none;startFill=0;" parent="1" source="26X6T3ZS9L2JQqSbIRwc-58" target="26X6T3ZS9L2JQqSbIRwc-70" edge="1">
          <mxGeometry relative="1" as="geometry" />
        </mxCell>
        <mxCell id="26X6T3ZS9L2JQqSbIRwc-81" style="edgeStyle=orthogonalEdgeStyle;rounded=0;orthogonalLoop=1;jettySize=auto;html=1;exitX=1;exitY=0.5;exitDx=0;exitDy=0;startArrow=none;startFill=0;" parent="1" source="26X6T3ZS9L2JQqSbIRwc-58" target="26X6T3ZS9L2JQqSbIRwc-67" edge="1">
          <mxGeometry relative="1" as="geometry" />
        </mxCell>
        <mxCell id="26X6T3ZS9L2JQqSbIRwc-58" value="There&#39;s abnormalities?" style="rhombus;whiteSpace=wrap;html=1;" parent="1" vertex="1">
          <mxGeometry x="1040" y="650" width="120" height="120" as="geometry" />
        </mxCell>
        <mxCell id="26X6T3ZS9L2JQqSbIRwc-63" style="edgeStyle=orthogonalEdgeStyle;rounded=0;orthogonalLoop=1;jettySize=auto;html=1;exitX=0;exitY=0.5;exitDx=0;exitDy=0;startArrow=none;startFill=0;" parent="1" source="26X6T3ZS9L2JQqSbIRwc-61" edge="1">
          <mxGeometry relative="1" as="geometry">
            <mxPoint x="710" y="240" as="targetPoint" />
          </mxGeometry>
        </mxCell>
        <mxCell id="26X6T3ZS9L2JQqSbIRwc-61" value="B" style="ellipse;whiteSpace=wrap;html=1;" parent="1" vertex="1">
          <mxGeometry x="750" y="210" width="60" height="60" as="geometry" />
        </mxCell>
        <mxCell id="26X6T3ZS9L2JQqSbIRwc-64" value="No" style="text;html=1;align=center;verticalAlign=middle;resizable=0;points=[];autosize=1;strokeColor=none;" parent="1" vertex="1">
          <mxGeometry x="945" y="655" width="30" height="20" as="geometry" />
        </mxCell>
        <mxCell id="26X6T3ZS9L2JQqSbIRwc-65" value="Yes" style="text;html=1;align=center;verticalAlign=middle;resizable=0;points=[];autosize=1;strokeColor=none;" parent="1" vertex="1">
          <mxGeometry x="995" y="560" width="40" height="20" as="geometry" />
        </mxCell>
        <mxCell id="26X6T3ZS9L2JQqSbIRwc-85" style="edgeStyle=orthogonalEdgeStyle;rounded=0;orthogonalLoop=1;jettySize=auto;html=1;exitX=0.5;exitY=1;exitDx=0;exitDy=0;entryX=1;entryY=0.5;entryDx=0;entryDy=0;startArrow=none;startFill=0;" parent="1" source="26X6T3ZS9L2JQqSbIRwc-67" target="26X6T3ZS9L2JQqSbIRwc-79" edge="1">
          <mxGeometry relative="1" as="geometry" />
        </mxCell>
        <mxCell id="26X6T3ZS9L2JQqSbIRwc-88" style="edgeStyle=orthogonalEdgeStyle;rounded=0;orthogonalLoop=1;jettySize=auto;html=1;exitX=1;exitY=0.5;exitDx=0;exitDy=0;entryX=0;entryY=0.5;entryDx=0;entryDy=0;startArrow=none;startFill=0;" parent="1" source="26X6T3ZS9L2JQqSbIRwc-67" target="26X6T3ZS9L2JQqSbIRwc-86" edge="1">
          <mxGeometry relative="1" as="geometry" />
        </mxCell>
        <mxCell id="26X6T3ZS9L2JQqSbIRwc-67" value="Send GPS and camera data to server" style="shape=parallelogram;perimeter=parallelogramPerimeter;whiteSpace=wrap;html=1;fixedSize=1;" parent="1" vertex="1">
          <mxGeometry x="1200" y="810" width="120" height="60" as="geometry" />
        </mxCell>
        <mxCell id="26X6T3ZS9L2JQqSbIRwc-84" style="edgeStyle=orthogonalEdgeStyle;rounded=0;orthogonalLoop=1;jettySize=auto;html=1;exitX=1;exitY=0.5;exitDx=0;exitDy=0;entryX=0;entryY=0.5;entryDx=0;entryDy=0;startArrow=none;startFill=0;" parent="1" source="26X6T3ZS9L2JQqSbIRwc-70" target="26X6T3ZS9L2JQqSbIRwc-67" edge="1">
          <mxGeometry relative="1" as="geometry" />
        </mxCell>
        <mxCell id="26X6T3ZS9L2JQqSbIRwc-70" value="&lt;div&gt;Send notification &lt;br&gt;&lt;/div&gt;&lt;div&gt;to alert device&lt;/div&gt;" style="shape=parallelogram;perimeter=parallelogramPerimeter;whiteSpace=wrap;html=1;fixedSize=1;" parent="1" vertex="1">
          <mxGeometry x="1040" y="810" width="120" height="60" as="geometry" />
        </mxCell>
        <mxCell id="26X6T3ZS9L2JQqSbIRwc-79" value="B" style="ellipse;whiteSpace=wrap;html=1;" parent="1" vertex="1">
          <mxGeometry x="910" y="980" width="60" height="60" as="geometry" />
        </mxCell>
        <mxCell id="26X6T3ZS9L2JQqSbIRwc-82" value="No" style="text;html=1;align=center;verticalAlign=middle;resizable=0;points=[];autosize=1;strokeColor=none;" parent="1" vertex="1">
          <mxGeometry x="1165" y="690" width="30" height="20" as="geometry" />
        </mxCell>
        <mxCell id="26X6T3ZS9L2JQqSbIRwc-83" value="Yes" style="text;html=1;align=center;verticalAlign=middle;resizable=0;points=[];autosize=1;strokeColor=none;" parent="1" vertex="1">
          <mxGeometry x="1095" y="780" width="40" height="20" as="geometry" />
        </mxCell>
        <mxCell id="26X6T3ZS9L2JQqSbIRwc-86" value="End" style="ellipse;whiteSpace=wrap;html=1;" parent="1" vertex="1">
          <mxGeometry x="1360" y="800" width="120" height="80" as="geometry" />
        </mxCell>
        <mxCell id="BRGnzEm3bvZSI96jECQM-4" style="edgeStyle=orthogonalEdgeStyle;rounded=0;orthogonalLoop=1;jettySize=auto;html=1;exitX=1;exitY=0.5;exitDx=0;exitDy=0;entryX=0;entryY=0.5;entryDx=0;entryDy=0;" parent="1" source="BRGnzEm3bvZSI96jECQM-1" target="26X6T3ZS9L2JQqSbIRwc-24" edge="1">
          <mxGeometry relative="1" as="geometry" />
        </mxCell>
        <mxCell id="BRGnzEm3bvZSI96jECQM-21" style="edgeStyle=orthogonalEdgeStyle;rounded=0;orthogonalLoop=1;jettySize=auto;html=1;exitX=0.5;exitY=1;exitDx=0;exitDy=0;entryX=0.5;entryY=0;entryDx=0;entryDy=0;" parent="1" source="BRGnzEm3bvZSI96jECQM-1" target="BRGnzEm3bvZSI96jECQM-20" edge="1">
          <mxGeometry relative="1" as="geometry" />
        </mxCell>
        <mxCell id="BRGnzEm3bvZSI96jECQM-1" value="&lt;div&gt;Ignition Sensor&lt;/div&gt;&lt;div&gt;is true?&lt;br&gt;&lt;/div&gt;" style="rhombus;whiteSpace=wrap;html=1;" parent="1" vertex="1">
          <mxGeometry x="120" y="260" width="120" height="120" as="geometry" />
        </mxCell>
        <mxCell id="BRGnzEm3bvZSI96jECQM-3" value="Yes" style="text;html=1;align=center;verticalAlign=middle;resizable=0;points=[];autosize=1;strokeColor=none;" parent="1" vertex="1">
          <mxGeometry x="140" y="380" width="40" height="20" as="geometry" />
        </mxCell>
        <mxCell id="BRGnzEm3bvZSI96jECQM-5" value="No" style="text;html=1;align=center;verticalAlign=middle;resizable=0;points=[];autosize=1;strokeColor=none;" parent="1" vertex="1">
          <mxGeometry x="245" y="298" width="30" height="20" as="geometry" />
        </mxCell>
        <mxCell id="BRGnzEm3bvZSI96jECQM-11" style="edgeStyle=orthogonalEdgeStyle;rounded=0;orthogonalLoop=1;jettySize=auto;html=1;exitX=0.5;exitY=0;exitDx=0;exitDy=0;" parent="1" source="BRGnzEm3bvZSI96jECQM-7" edge="1">
          <mxGeometry relative="1" as="geometry">
            <mxPoint x="480" y="390" as="targetPoint" />
            <Array as="points">
              <mxPoint x="340" y="520" />
              <mxPoint x="480" y="520" />
            </Array>
          </mxGeometry>
        </mxCell>
        <mxCell id="BRGnzEm3bvZSI96jECQM-16" style="edgeStyle=orthogonalEdgeStyle;rounded=0;orthogonalLoop=1;jettySize=auto;html=1;exitX=1;exitY=0.5;exitDx=0;exitDy=0;entryX=0.5;entryY=0;entryDx=0;entryDy=0;" parent="1" source="BRGnzEm3bvZSI96jECQM-7" target="BRGnzEm3bvZSI96jECQM-14" edge="1">
          <mxGeometry relative="1" as="geometry" />
        </mxCell>
        <mxCell id="BRGnzEm3bvZSI96jECQM-7" value="&lt;div&gt;Is already &lt;br&gt;&lt;/div&gt;&lt;div&gt;10 Second?&lt;/div&gt;" style="rhombus;whiteSpace=wrap;html=1;" parent="1" vertex="1">
          <mxGeometry x="280" y="590" width="120" height="120" as="geometry" />
        </mxCell>
        <mxCell id="BRGnzEm3bvZSI96jECQM-12" value="Yes" style="text;html=1;align=center;verticalAlign=middle;resizable=0;points=[];autosize=1;strokeColor=none;" parent="1" vertex="1">
          <mxGeometry x="335" y="570" width="40" height="20" as="geometry" />
        </mxCell>
        <mxCell id="BRGnzEm3bvZSI96jECQM-13" value="No" style="text;html=1;align=center;verticalAlign=middle;resizable=0;points=[];autosize=1;strokeColor=none;" parent="1" vertex="1">
          <mxGeometry x="410" y="620" width="30" height="20" as="geometry" />
        </mxCell>
        <mxCell id="BRGnzEm3bvZSI96jECQM-14" value="B" style="ellipse;whiteSpace=wrap;html=1;" parent="1" vertex="1">
          <mxGeometry x="410" y="720" width="60" height="60" as="geometry" />
        </mxCell>
        <mxCell id="BRGnzEm3bvZSI96jECQM-22" style="edgeStyle=orthogonalEdgeStyle;rounded=0;orthogonalLoop=1;jettySize=auto;html=1;exitX=0.5;exitY=1;exitDx=0;exitDy=0;entryX=0.5;entryY=0;entryDx=0;entryDy=0;" parent="1" source="BRGnzEm3bvZSI96jECQM-20" target="26X6T3ZS9L2JQqSbIRwc-48" edge="1">
          <mxGeometry relative="1" as="geometry" />
        </mxCell>
        <mxCell id="BRGnzEm3bvZSI96jECQM-20" value="Turn on Camera" style="whiteSpace=wrap;html=1;rounded=0;" parent="1" vertex="1">
          <mxGeometry x="120" y="420" width="120" height="60" as="geometry" />
        </mxCell>
      </root>
    </mxGraphModel>
  </diagram>
</mxfile>
